<svg
 xmlns="http://www.w3.org/2000/svg"
 xmlns:xlink="http://www.w3.org/1999/xlink"
 width="1003.5px" height="973.5px">
<path fill-rule="evenodd" stroke-linecap="butt" stroke-linejoin="miter"
 d="M500.500,1.500 C542.496,43.163 584.504,84.838 626.500,126.500 C601.733,151.637 579.679,175.312 575.175,180.005 C570.931,184.427 566.258,188.946 561.067,193.228 C545.835,205.790 526.140,216.301 499.712,216.273 C457.129,216.228 432.093,182.094 410.500,160.500 C399.168,149.168 387.832,137.832 376.500,126.500 C417.829,84.838 459.171,43.163 500.500,1.500 ZM250.500,251.500 C292.163,292.829 333.838,334.171 375.500,375.500 C393.165,357.835 410.835,340.165 428.500,322.500 C445.809,313.878 454.653,297.116 476.500,290.500 C520.453,277.191 549.354,298.923 571.897,321.307 C573.510,322.909 608.724,358.724 625.500,375.500 C667.496,334.171 709.504,292.829 751.500,251.500 C834.825,334.825 918.175,418.175 1001.500,501.500 C855.768,647.561 635.156,869.219 626.572,877.304 C575.339,925.560 524.309,968.592 502.007,970.982 C483.944,972.918 430.291,927.315 376.867,876.927 C373.413,873.670 321.168,821.419 251.247,751.438 C175.555,675.682 79.148,579.148 1.500,501.500 C84.492,418.175 167.508,334.825 250.500,251.500 ZM375.500,377.500 C334.504,418.496 293.496,459.504 252.500,500.500 C335.492,583.492 418.508,666.508 501.500,749.500 C584.492,666.842 667.508,584.158 750.500,501.500 C709.171,460.171 667.829,418.829 626.500,377.500 C584.837,418.829 543.162,460.171 501.500,501.500 C460.171,460.171 418.829,418.829 377.500,377.500 C376.833,377.500 376.167,377.500 375.500,377.500 Z"/>
</svg>
