<?xml version="1.0" encoding="utf-8"?>
<!-- Generator: Adobe Illustrator 25.3.1, SVG Export Plug-In . SVG Version: 6.00 Build 0)  -->
<svg version="1.1" id="图层_1" xmlns="http://www.w3.org/2000/svg" xmlns:xlink="http://www.w3.org/1999/xlink" x="0px" y="0px"
	 viewBox="0 0 1024 1024" style="enable-background:new 0 0 1024 1024;" xml:space="preserve">
<style type="text/css">
	.st0{fill:#E30000;}
</style>
<g>
	<path class="st0" d="M624.48,190.84c-18.62,18.62-37.24,37.25-55.87,55.87c-26.78,26.77-67.23,31.43-99.27,11.23
		c-4.82-3.04-9.36-6.71-13.42-10.7c-18.45-18.17-36.69-36.56-55-54.87c-0.43-0.43-0.86-0.86-1.52-1.52
		c37.6-37.6,75.07-75.07,112.54-112.54C549.45,115.81,586.97,153.32,624.48,190.84z"/>
	<g>
		<path class="st1" d="M737.02,303.38c75,75,150.01,150.01,225.08,225.08c-132.8,132.8-265.6,265.6-398.4,398.4
			c-2.95,2.08-5.81,4.31-8.86,6.22c-32.58,20.37-72.65,15.79-99.92-11.48C324.56,791.27,194.23,660.92,63.89,530.58
			c-0.66-0.66-1.33-1.33-1.99-1.99c75.15-75.15,150.06-150.06,225.08-225.08c0.81,0.81,1.49,1.49,2.17,2.17
			c11.69,11.69,23.38,23.38,35.07,35.07c25.08,25.06,50.15,50.12,75.23,75.17c-37.2,37.19-75.26,75.23-112.46,112.42l0,0
			c75.02,75.02,150.04,150.05,224.93,224.94c75.04-75.03,150-150.02,224.94-224.96l0,0c-37.2-37.19-75.24-75.23-112.44-112.41
			c0.82-0.8,1.65-1.59,2.46-2.41C663.6,376.8,700.31,340.09,737.02,303.38z"/>
		<path class="st1" d="M624.53,415.92c-35.71,35.69-71.41,71.38-107.12,107.07c-1.74,1.74-3.48,3.48-5.5,5.5
			c-37.6-37.6-74.98-75.09-112.46-112.57c18.81-18.79,37.44-37.66,56.35-56.36c26.73-26.43,67.12-30.83,98.85-10.69
			c4.88,3.1,9.45,6.86,13.58,10.92C587.11,378.38,605.78,397.19,624.53,415.92z"/>
	</g>
</g>
</svg>
