<svg xmlns="http://www.w3.org/2000/svg" width="1.2em" height="1.2em" viewBox="0 0 24 24"><g fill="none" stroke="currentColor" stroke-linecap="round" stroke-linejoin="round" stroke-width="2" color="currentColor"><path d="M5.158 11.491c-.073 1.396.011 2.882-1.236 3.817A2.3 2.3 0 0 0 3 17.153C3 18.15 3.782 19 4.8 19h14.4c1.018 0 1.8-.85 1.8-1.847c0-.726-.342-1.41-.922-1.845c-1.247-.935-1.163-2.421-1.236-3.817a6.851 6.851 0 0 0-13.684 0"/><path d="M10.5 3.125C10.5 3.953 11.172 5 12 5s1.5-1.047 1.5-1.875S12.828 2 12 2s-1.5.297-1.5 1.125M15 19a3 3 0 1 1-6 0"/></g></svg>