<?xml version="1.0" standalone="no"?><!DOCTYPE svg PUBLIC "-//W3C//DTD SVG 1.1//EN" "http://www.w3.org/Graphics/SVG/1.1/DTD/svg11.dtd"><svg t="1752544323336" class="icon" viewBox="0 0 1365 1024" version="1.1" xmlns="http://www.w3.org/2000/svg" p-id="8402" xmlns:xlink="http://www.w3.org/1999/xlink" width="42.65625" height="32"><path d="M165.461333 511.146667l314.538667-322.133334a217.429333 217.429333 0 0 1 311.125333 0l3.413334 3.541334a222.976 222.976 0 0 1 0 311.552l-314.538667 322.133333a217.429333 217.429333 0 0 1-311.125333 0l-3.413334-3.541333a222.976 222.976 0 0 1 0-311.552z" fill="#12D2AC" p-id="8403"></path><path d="M791.381333 189.013333l311.125334 318.592a228.010667 228.010667 0 0 1 0 318.592 217.429333 217.429333 0 0 1-311.125334 0l-311.125333-318.592a228.010667 228.010667 0 0 1 0-318.592 217.429333 217.429333 0 0 1 311.125333 0z" fill="#307AF2" p-id="8404"></path><path d="M794.965333 192.938667l151.594667 155.221333-311.125333 318.592L324.309333 348.16l151.594667-155.221333a222.976 222.976 0 0 1 319.061333 0z" fill="#0057FE" p-id="8405"></path></svg>