<svg width="352" height="32" viewBox="0 0 352 32" fill="none" xmlns="http://www.w3.org/2000/svg">
  <path fill-rule="evenodd" clip-rule="evenodd"
        d="M43.7635 14.4631C40.8341 11.523 40.6759 8.7416 43.2889 6.119L47.9707 1.42006L48.0641 1.33331L48.1576 1.42006L52.8393 6.119C55.4262 8.71537 55.297 11.4674 52.4518 14.375L52.3647 14.4631L48.0642 18.7795L43.7635 14.4631Z"
        fill="#1AC2C4"/>
  <path
    d="M61.8211 17.9717L61.9514 17.9767L61.9566 18.1071V24.8917C61.9566 28.6405 59.8762 30.5336 55.7155 30.5711L55.5888 30.5717H49.3566V24.3394C49.3566 20.0943 51.2499 17.9717 55.0365 17.9717H61.8211ZM59.9069 19.9999H55.2403C52.6357 19.9999 51.3334 21.4599 51.3334 24.3799V28.6666L55.7073 28.6662C58.5692 28.6404 60.0001 27.3383 60.0001 24.7597V20.0931L59.9966 20.0034L59.9069 19.9999Z"
    fill="#32A7A7"/>
  <path fill-rule="evenodd" clip-rule="evenodd"
        d="M46.9333 24.3394C46.9333 20.0943 45.04 17.9717 41.2534 17.9717H34.4688L34.3385 17.9767L34.3333 18.1071V24.8917C34.3333 28.6405 36.4137 30.5336 40.5744 30.5711L40.7011 30.5717H46.9333V24.3394Z"
        fill="#199598"/>
  <path fill-rule="evenodd" clip-rule="evenodd"
        d="M46.9334 30.5717H40.7011L40.5744 30.5711C36.4605 30.534 34.3804 28.6828 34.3342 25.0174L34.3334 24.8917V18.1071L34.3385 17.9767L46.9334 30.5717Z"
        fill="#1AC2C4"/>
  <path fill-rule="evenodd" clip-rule="evenodd"
        d="M80 0C88.8366 0 96 7.16344 96 16C96 24.8366 88.8366 32 80 32C71.1634 32 64 24.8366 64 16C64 7.16344 71.1634 0 80 0ZM79.8462 6.46154C74.4932 6.46154 70.1538 10.8009 70.1538 16.1538C70.1538 21.5068 74.4932 25.8462 79.8462 25.8462C85.1991 25.8462 89.5385 21.5068 89.5385 16.1538C89.5385 10.8009 85.1991 6.46154 79.8462 6.46154Z"
        fill="#FFD3DA"/>
  <path fill-rule="evenodd" clip-rule="evenodd"
        d="M80 3.69232C86.7973 3.69232 92.3076 9.20266 92.3076 16C92.3076 22.7974 86.7973 28.3077 80 28.3077C73.2026 28.3077 67.6923 22.7974 67.6923 16C67.6923 9.20266 73.2026 3.69232 80 3.69232ZM80 7.38463C75.2418 7.38463 71.3846 11.2419 71.3846 16C71.3846 20.7582 75.2418 24.6154 80 24.6154C84.7581 24.6154 88.6153 20.7582 88.6153 16C88.6153 11.2419 84.7581 7.38463 80 7.38463Z"
        fill="#F74455"/>
  <path
    d="M83.952 13.8039C83.8231 13.5048 83.6385 13.2375 83.4048 13.0077C83.1712 12.7789 82.9 12.6 82.5972 12.4741C82.2847 12.3443 81.9539 12.2789 81.6125 12.2789C81.1385 12.2789 80.676 12.4087 80.2741 12.6539C80.1779 12.7125 80.0866 12.7769 80 12.8471C79.9135 12.7769 79.8222 12.7125 79.726 12.6539C79.3241 12.4087 78.8616 12.2789 78.3875 12.2789C78.0462 12.2789 77.7154 12.3443 77.4029 12.4741C77.101 12.5991 76.8289 12.7789 76.5952 13.0077C76.3606 13.2375 76.177 13.5048 76.0481 13.8039C75.9145 14.1144 75.8462 14.4443 75.8462 14.7837C75.8462 15.1039 75.9116 15.4375 76.0414 15.7769C76.15 16.0606 76.3058 16.3548 76.5048 16.6519C76.8202 17.1221 77.2539 17.6125 77.7923 18.1096C78.6847 18.9337 79.5683 19.5029 79.6058 19.526L79.8337 19.6721C79.9347 19.7366 80.0645 19.7366 80.1654 19.6721L80.3933 19.526C80.4308 19.5019 81.3135 18.9337 82.2068 18.1096C82.7452 17.6125 83.1789 17.1221 83.4943 16.6519C83.6933 16.3548 83.85 16.0606 83.9577 15.7769C84.0875 15.4375 84.1529 15.1039 84.1529 14.7837C84.1539 14.4443 84.0856 14.1144 83.952 13.8039Z"
    fill="#F74455"/>
  <mask id="mask0_110_456" style="mask-type:alpha" maskUnits="userSpaceOnUse" x="99" y="0"
        width="25" height="32">
    <path d="M99 0.113037H123.915V31.0224H99V0.113037Z" fill="white"/>
  </mask>
  <g mask="url(#mask0_110_456)">
    <path fill-rule="evenodd" clip-rule="evenodd"
          d="M109.859 12.4985C111.03 9.48693 112.501 5.84751 113.256 3.89013C114.401 0.922147 117.975 -0.0410151 120.294 2.13062C123.464 5.09849 119.955 9.79435 118.326 13.7684C118.326 13.7684 122.8 14.5004 122.555 19.5707C122.555 19.5707 126.779 24.845 120.337 28.6303C115.106 31.7036 105.446 31.8151 101.741 28.9677C98.1698 26.2223 98.4503 23.0626 100.518 9.64313C100.906 7.12104 101.241 5.01683 101.739 3.44503C103.278 -1.41551 109.739 -0.827764 110.065 4.35658C110.235 7.04898 109.235 9.88821 108.807 12.5239L109.859 12.4985Z"
          fill="#00BDFF"/>
  </g>
  <path fill-rule="evenodd" clip-rule="evenodd"
        d="M106.847 21.5272C106.847 23.6181 105.685 25.313 104.253 25.313C102.82 25.313 101.659 23.6181 101.659 21.5272C101.659 19.4364 102.82 17.7415 104.253 17.7415C105.685 17.7415 106.847 19.4364 106.847 21.5272Z"
        fill="white"/>
  <path fill-rule="evenodd" clip-rule="evenodd"
        d="M112.812 21.5272C112.812 23.6181 111.651 25.313 110.218 25.313C108.786 25.313 107.624 23.6181 107.624 21.5272C107.624 19.4364 108.786 17.7415 110.218 17.7415C111.651 17.7415 112.812 19.4364 112.812 21.5272Z"
        fill="white"/>
  <path fill-rule="evenodd" clip-rule="evenodd"
        d="M106.586 21.5224C106.586 23.0253 105.8 24.2435 104.83 24.2435C103.86 24.2435 103.074 23.0253 103.074 21.5224C103.074 20.0196 103.86 18.8013 104.83 18.8013C105.8 18.8013 106.586 20.0196 106.586 21.5224Z"
        fill="#0B2051"/>
  <path fill-rule="evenodd" clip-rule="evenodd"
        d="M112.48 21.5224C112.48 23.0253 111.693 24.2435 110.724 24.2435C109.753 24.2435 108.967 23.0253 108.967 21.5224C108.967 20.0196 109.753 18.8013 110.724 18.8013C111.693 18.8013 112.48 20.0196 112.48 21.5224Z"
        fill="#0B2051"/>
  <path
    d="M108.05 25.3568C107.939 25.7419 107.584 26.0237 107.163 26.0237C106.741 26.0237 106.385 25.7395 106.276 25.3516"
    stroke="#0B2051" stroke-width="0.6" stroke-linecap="round" stroke-linejoin="round"/>
  <path
    d="M156.884 10.575C156.181 8.89687 155.169 7.39063 153.881 6.09688C152.594 4.80625 151.091 3.79063 149.412 3.0875C147.697 2.36563 145.878 2 144 2H143.937C142.047 2.00938 140.219 2.38438 138.497 3.12188C136.834 3.83438 135.344 4.84687 134.069 6.1375C132.794 7.42812 131.794 8.92813 131.1 10.6C130.384 12.3313 130.022 14.1719 130.031 16.0656C130.041 18.2344 130.559 20.3875 131.528 22.3125V27.0625C131.528 27.8562 132.172 28.5 132.962 28.5H137.706C139.628 29.4719 141.775 29.9906 143.941 30H144.006C145.875 30 147.684 29.6375 149.391 28.9281C151.059 28.2313 152.559 27.2313 153.844 25.9531C155.131 24.675 156.144 23.1812 156.853 21.5156C157.587 19.7906 157.962 17.9562 157.972 16.0625C157.978 14.1594 157.609 12.3125 156.884 10.575ZM137.762 17.5C136.937 17.5 136.266 16.8281 136.266 16C136.266 15.1719 136.937 14.5 137.762 14.5C138.587 14.5 139.259 15.1719 139.259 16C139.259 16.8281 138.591 17.5 137.762 17.5ZM144 17.5C143.175 17.5 142.503 16.8281 142.503 16C142.503 15.1719 143.175 14.5 144 14.5C144.825 14.5 145.497 15.1719 145.497 16C145.497 16.8281 144.825 17.5 144 17.5ZM150.237 17.5C149.412 17.5 148.741 16.8281 148.741 16C148.741 15.1719 149.412 14.5 150.237 14.5C151.062 14.5 151.734 15.1719 151.734 16C151.734 16.8281 151.062 17.5 150.237 17.5Z"
    fill="#1AC2C4"/>
  <path
    d="M172 28.5H187.5C188.053 28.5 188.5 28.0531 188.5 27.5V10.625H172V28.5ZM187.5 3.5H172V8.625H188.5V4.5C188.5 3.94687 188.053 3.5 187.5 3.5ZM163.5 4.5V27.5C163.5 28.0531 163.947 28.5 164.5 28.5H170V3.5H164.5C163.947 3.5 163.5 3.94687 163.5 4.5Z"
    fill="#88C4FF"/>
  <path fill-rule="evenodd" clip-rule="evenodd"
        d="M187.5 3.5H172V8.625H188.5V4.5C188.5 3.94687 188.053 3.5 187.5 3.5Z" fill="#89C4FE"/>
  <path fill-rule="evenodd" clip-rule="evenodd"
        d="M163.5 4.5V27.5C163.5 28.0531 163.947 28.5 164.5 28.5H170V3.5H164.5C163.947 3.5 163.5 3.94687 163.5 4.5Z"
        fill="#49A5FF"/>
  <path
    d="M218.972 16.2031H207.797V5.0281C207.797 4.8906 207.684 4.7781 207.547 4.7781H206.734C205.05 4.7781 203.413 5.10935 201.875 5.75935C200.391 6.38747 199.053 7.28747 197.906 8.43435C196.759 9.58122 195.859 10.9156 195.231 12.4031C194.581 13.9437 194.25 15.5781 194.25 17.2656C194.25 18.9531 194.581 20.5843 195.231 22.125C195.859 23.6093 196.759 24.9468 197.906 26.0937C199.053 27.2406 200.388 28.1406 201.875 28.7687C203.416 29.4218 205.053 29.7531 206.738 29.7531C208.422 29.7531 210.059 29.4218 211.597 28.7718C213.081 28.1437 214.419 27.2437 215.566 26.0968C216.712 24.95 217.613 23.6156 218.241 22.1281C218.894 20.5875 219.225 18.95 219.225 17.2656V16.4531C219.222 16.3156 219.109 16.2031 218.972 16.2031ZM221.719 14.4687L221.638 13.5875C221.372 10.7125 220.097 7.99997 218.041 5.9531C215.987 3.89997 213.272 2.6281 210.388 2.36247L209.503 2.28122C209.356 2.26872 209.231 2.38122 209.231 2.5281V14.5187C209.231 14.6562 209.344 14.7687 209.481 14.7687L221.469 14.7375C221.616 14.7343 221.731 14.6125 221.719 14.4687Z"
    fill="#8947FF"/>
  <path fill-rule="evenodd" clip-rule="evenodd"
        d="M222.117 14.7423L222.031 13.8125C221.751 10.7791 220.405 7.91714 218.236 5.75749C216.07 3.59126 213.204 2.24931 210.161 1.96905L209.228 1.88333C209.073 1.87014 208.941 1.98883 208.941 2.1438V14.795C208.941 14.9401 209.06 15.0588 209.205 15.0588L221.853 15.0258C222.008 15.0225 222.13 14.8939 222.117 14.7423Z"
        fill="#FF9329"/>
  <path
    d="M252.502 8.51028C252.083 7.5387 251.482 6.67022 250.722 5.92357C249.962 5.18005 249.08 4.59897 248.094 4.18972C247.078 3.76798 246.002 3.55554 244.891 3.55554C243.349 3.55554 241.845 3.97729 240.537 4.77392C240.225 4.96449 239.927 5.1738 239.646 5.40185C239.364 5.1738 239.067 4.96449 238.754 4.77392C237.447 3.97729 235.942 3.55554 234.4 3.55554C233.29 3.55554 232.214 3.76798 231.197 4.18972C230.215 4.59585 229.33 5.18005 228.57 5.92357C227.807 6.67022 227.209 7.5387 226.79 8.51028C226.355 9.51935 226.133 10.5909 226.133 11.6937C226.133 12.734 226.346 13.818 226.768 14.9208C227.122 15.8424 227.628 16.7984 228.276 17.7637C229.302 19.2914 230.713 20.8846 232.464 22.4998C235.367 25.1771 238.242 27.0265 238.364 27.1015L239.105 27.5763C239.433 27.7856 239.856 27.7856 240.184 27.5763L240.925 27.1015C241.047 27.0234 243.919 25.1771 246.825 22.4998C248.576 20.8846 249.987 19.2914 251.013 17.7637C251.66 16.7984 252.17 15.8424 252.521 14.9208C252.943 13.818 253.156 12.734 253.156 11.6937C253.159 10.5909 252.937 9.51935 252.502 8.51028Z"
    fill="#F74557"/>
  <path
    d="M271.6 2.40002C263.869 2.40002 257.6 8.66877 257.6 16.4C257.6 24.1313 263.869 30.4 271.6 30.4C279.331 30.4 285.6 24.1313 285.6 16.4C285.6 8.66877 279.331 2.40002 271.6 2.40002Z"
    fill="#FE725C"/>
  <path
    d="M271.6 22.0563C268.928 22.0563 266.737 19.9532 266.6 17.3188C266.594 17.175 266.706 17.0563 266.85 17.0563H276.35C276.494 17.0563 276.606 17.175 276.6 17.3188C276.462 19.9532 274.272 22.0563 271.6 22.0563Z"
    fill="white"/>
  <path
    d="M280.726 12.8114C280.337 11.3156 279.022 10.25 277.495 10.25C275.985 10.25 274.681 11.2915 274.277 12.7636C274.167 13.163 274.402 13.5758 274.801 13.6855C275.201 13.7953 275.613 13.5605 275.723 13.1611C275.952 12.3271 276.675 11.75 277.495 11.75C278.273 11.75 278.962 12.2693 279.227 13.0328L279.274 13.1886C279.378 13.5895 279.788 13.8301 280.189 13.7259C280.59 13.6217 280.83 13.2123 280.726 12.8114Z"
    fill="white"/>
  <path
    d="M269.726 12.8114C269.337 11.3156 268.022 10.25 266.495 10.25C264.985 10.25 263.681 11.2915 263.277 12.7636C263.167 13.163 263.402 13.5758 263.801 13.6855C264.201 13.7953 264.613 13.5605 264.723 13.1611C264.952 12.3271 265.675 11.75 266.495 11.75C267.273 11.75 267.962 12.2693 268.227 13.0328L268.274 13.1886C268.378 13.5895 268.788 13.8301 269.189 13.7259C269.589 13.6217 269.83 13.2123 269.726 12.8114Z"
    fill="white"/>
  <path d="M294.019 25.6335H291V29.3107H294.019V25.6335Z" fill="#FFD75A"/>
  <path d="M299.453 22.8757H296.434V29.3107H299.453V22.8757Z" fill="#FFD75A"/>
  <path d="M304.888 19.8113H301.869V29.3107H304.888V19.8113Z" fill="#FFD75A"/>
  <path d="M310.322 15.5213H307.303V29.3107H310.322V15.5213Z" fill="#FFD75A"/>
  <path d="M315.756 11.2313H312.737V29.3108H315.756V11.2313Z" fill="#FFD75A"/>
  <path
    d="M312.132 3.96639L312.298 3.74076C312.486 3.48158 313.669 2.80466 314.04 2.98904C314.488 3.21168 314.099 4.35627 313.888 4.65018C308.773 11.7663 301.178 17.8201 291.116 22.8183L291 22.8757L291 20.8232C300.283 16.1134 307.323 10.4925 312.132 3.96639L312.298 3.74076L312.132 3.96639Z"
    fill="#FFB200"/>
  <path d="M313.643 3.87692V7.86054H315.454V2.03833H309.718V3.87692H313.643Z" fill="#FFB200"/>
  <path
    d="M347.684 16.6781C348.209 15.9844 348.5 15.1344 348.5 14.25C348.5 12.8469 347.716 11.5188 346.453 10.7781C346.128 10.5875 345.758 10.4872 345.381 10.4875H337.888L338.075 6.64689C338.119 5.71876 337.791 4.83751 337.153 4.16564C336.513 3.49376 335.65 3.12189 334.719 3.12189C333.094 3.12189 331.656 4.21564 331.225 5.78126L328.541 15.5H328.531V28.875H343.291C343.578 28.875 343.859 28.8188 344.119 28.7063C345.606 28.0719 346.566 26.6188 346.566 25.0063C346.566 24.6125 346.509 24.225 346.397 23.85C346.922 23.1563 347.212 22.3063 347.212 21.4219C347.212 21.0281 347.156 20.6406 347.044 20.2656C347.569 19.5719 347.859 18.7219 347.859 17.8375C347.853 17.4438 347.797 17.0531 347.684 16.6781ZM323.5 16.5V27.875C323.5 28.4281 323.947 28.875 324.5 28.875H326.531V15.5H324.5C323.947 15.5 323.5 15.9469 323.5 16.5Z"
    fill="#FE725C"/>
  <path d="M6.95652 3H3V6.95652H6.95652V3Z" fill="#0170FE"/>
  <path d="M6.95652 10.3478H3V14.3044H6.95652V10.3478Z" fill="#0170FE"/>
  <path d="M6.95652 17.6957H3V21.6522H6.95652V17.6957Z" fill="#0170FE"/>
  <path d="M6.95652 25.0435H3V29H6.95652V25.0435Z" fill="#0170FE"/>
  <path d="M14.3043 3H10.3478V6.95652H14.3043V3Z" fill="#0170FE"/>
  <path d="M14.3043 10.3478H10.3478V14.3044H14.3043V10.3478Z" fill="#0170FE"/>
  <path d="M14.3043 17.6957H10.3478V21.6522H14.3043V17.6957Z" fill="#0170FE"/>
  <path d="M14.3043 25.0435H10.3478V29H14.3043V25.0435Z" fill="#0170FE"/>
  <path d="M21.6522 3H17.6957V6.95652H21.6522V3Z" fill="#0170FE"/>
  <path d="M21.6522 10.3478H17.6957V14.3044H21.6522V10.3478Z" fill="#0170FE"/>
  <path d="M21.6522 17.6957H17.6957V21.6522H21.6522V17.6957Z" fill="#0170FE"/>
  <path d="M21.6522 25.0435H17.6957V29H21.6522V25.0435Z" fill="#0170FE"/>
  <path d="M29 3H25.0435V6.95652H29V3Z" fill="#0170FE"/>
  <path d="M29 10.3478H25.0435V14.3044H29V10.3478Z" fill="#0170FE"/>
  <path d="M29 17.6957H25.0435V21.6522H29V17.6957Z" fill="#0170FE"/>
  <path d="M29 25.0435H25.0435V29H29V25.0435Z" fill="#0170FE"/>
</svg>
