<svg viewBox="0 0 504 504" version="1.1" xmlns="http://www.w3.org/2000/svg" xmlns:xlink="http://www.w3.org/1999/xlink"><path d="M253.388605,18.2471976 L253.388605,18.2471976 L253.388605,18.2471976 L296.075582,21.6546527 L298.075937,109.762417 L209.101448,108.628787 L208.558223,63.9248001 L208.558223,63.0775789 C208.558223,38.318443 228.629469,18.2471976 253.388605,18.2471976 Z" id="矩形" fill="#F3B03D" transform="translate(253.317080, 64.004807) scale(1, -1) rotate(45.000000) translate(-253.317080, -64.004807) "></path><path d="M250.692327,75.4735169 L428.670981,75.4735169 L429.261374,371.18088 L429.283286,381.714584 C429.296285,388.666647 427.917564,395.551107 425.227551,401.961963 L423.812509,405.334298 C420.293614,413.720547 413.619148,420.388434 405.228125,423.900363 L402.120014,425.201213 C395.500145,427.971854 388.393109,429.391733 381.216548,429.380405 L370.343084,429.355715 L75.282811,428.76693 L75.282811,251.543105 L163.058973,251.543105 L162.351866,338.517239 L339.128562,338.517239 L338.421455,162.447651 L251.447321,163.154758 L250.692327,75.4735169 Z" id="路径" stroke="#F50000" stroke-width="1.414214" fill="#FF0000" stroke-linejoin="round" transform="translate(252.283049, 252.426961) rotate(45.000000) translate(-252.283049, -252.426961) "></path><path d="M253.671893,143.665 L295.415417,146.997145 L297.37177,233.166777 L210.408614,232.058774 L209.877315,188.336204 L209.877315,187.495058 C209.877315,175.522846 214.677394,164.671745 222.458045,156.761324 C230.251836,148.837542 241.036233,143.864243 252.974445,143.67065 L252.974445,143.67065 L253.671893,143.665 Z" id="矩形" stroke="#F70000" stroke-width="2" fill="#FF0000" transform="translate(253.636172, 188.422286) rotate(45.000000) translate(-253.636172, -188.422286) "></path></svg>
